<svg width="1000" height="1000" viewBox="0 0 1000 1000" fill="none" xmlns="http://www.w3.org/2000/svg">
<path d="M362.046 780.05C341.619 800.476 341.427 833.969 364.667 851.127C424.498 895.299 497.273 919.548 572.548 919.548C665.374 919.548 754.397 882.673 820.035 817.035C885.673 751.397 922.548 662.374 922.548 569.548C922.548 494.273 898.299 421.498 854.127 361.667C836.969 338.427 803.476 338.619 783.05 359.046C762.623 379.472 763.203 412.379 778.845 436.665C804.17 475.983 817.937 522.056 817.937 569.548C817.937 634.629 792.084 697.045 746.064 743.064C700.045 789.084 637.629 814.937 572.548 814.937C525.055 814.937 478.983 801.17 439.665 775.845C415.379 760.203 382.472 759.623 362.046 780.05Z" fill="url(#paint0_radial_1_2)"/>
<path d="M252.935 440.854C272.462 421.328 304.12 421.328 323.646 440.854L447.39 564.598C466.916 584.124 466.916 615.782 447.39 635.309C427.864 654.835 396.205 654.835 376.679 635.309L252.935 511.565C233.409 492.039 233.409 460.381 252.935 440.854Z" fill="url(#paint1_radial_1_2)"/>
<path d="M449.511 213.166C469.037 193.64 500.696 193.64 520.222 213.166L643.966 336.91C663.492 356.436 663.492 388.094 643.966 407.62C624.439 427.146 592.781 427.146 573.255 407.62L449.511 283.877C429.985 264.35 429.985 232.692 449.511 213.166Z" fill="url(#paint2_radial_1_2)"/>
<path d="M352.638 116.292C372.164 96.7661 403.822 96.7661 423.348 116.292C442.874 135.819 442.874 167.477 423.348 187.003C403.822 206.529 372.164 206.529 352.638 187.003C333.111 167.477 333.111 135.819 352.638 116.292Z" fill="url(#paint3_radial_1_2)"/>
<path d="M164.547 352.466C184.073 332.94 215.732 332.94 235.258 352.466C254.784 371.992 254.784 403.65 235.258 423.177C215.732 442.703 184.073 442.703 164.547 423.177C145.021 403.65 145.021 371.992 164.547 352.466Z" fill="url(#paint4_radial_1_2)"/>
<path d="M429.712 405.499C449.238 385.973 480.897 385.973 500.423 405.499L695.584 600.66C715.111 620.187 715.111 651.845 695.584 671.371C676.058 690.897 644.4 690.897 624.874 671.371L429.712 476.21C410.186 456.683 410.186 425.025 429.712 405.499Z" fill="url(#paint5_radial_1_2)"/>
<path d="M341.324 317.111C360.85 297.584 392.508 297.584 412.035 317.111C431.561 336.637 431.561 368.295 412.035 387.821C392.508 407.347 360.85 407.347 341.324 387.821C321.798 368.295 321.798 336.637 341.324 317.111Z" fill="url(#paint6_radial_1_2)"/>
<defs>
<radialGradient id="paint0_radial_1_2" cx="0" cy="0" r="1" gradientUnits="userSpaceOnUse" gradientTransform="translate(257.5 265.5) rotate(44.6039) scale(869.409 821.304)">
<stop stop-color="#4000FF"/>
<stop offset="1" stop-color="#FF00C8"/>
</radialGradient>
<radialGradient id="paint1_radial_1_2" cx="0" cy="0" r="1" gradientUnits="userSpaceOnUse" gradientTransform="translate(257.5 265.5) rotate(44.6039) scale(869.409 821.304)">
<stop stop-color="#4000FF"/>
<stop offset="1" stop-color="#FF00C8"/>
</radialGradient>
<radialGradient id="paint2_radial_1_2" cx="0" cy="0" r="1" gradientUnits="userSpaceOnUse" gradientTransform="translate(257.5 265.5) rotate(44.6039) scale(869.409 821.304)">
<stop stop-color="#4000FF"/>
<stop offset="1" stop-color="#FF00C8"/>
</radialGradient>
<radialGradient id="paint3_radial_1_2" cx="0" cy="0" r="1" gradientUnits="userSpaceOnUse" gradientTransform="translate(257.5 265.5) rotate(44.6039) scale(869.409 821.304)">
<stop stop-color="#4000FF"/>
<stop offset="1" stop-color="#FF00C8"/>
</radialGradient>
<radialGradient id="paint4_radial_1_2" cx="0" cy="0" r="1" gradientUnits="userSpaceOnUse" gradientTransform="translate(257.5 265.5) rotate(44.6039) scale(869.409 821.304)">
<stop stop-color="#4000FF"/>
<stop offset="1" stop-color="#FF00C8"/>
</radialGradient>
<radialGradient id="paint5_radial_1_2" cx="0" cy="0" r="1" gradientUnits="userSpaceOnUse" gradientTransform="translate(257.5 265.5) rotate(44.6039) scale(869.409 821.304)">
<stop stop-color="#4000FF"/>
<stop offset="1" stop-color="#FF00C8"/>
</radialGradient>
<radialGradient id="paint6_radial_1_2" cx="0" cy="0" r="1" gradientUnits="userSpaceOnUse" gradientTransform="translate(257.5 265.5) rotate(44.6039) scale(869.409 821.304)">
<stop stop-color="#4000FF"/>
<stop offset="1" stop-color="#FF00C8"/>
</radialGradient>
</defs>
</svg>
